<svg width="73" height="85" viewBox="0 0 73 85" fill="none" xmlns="http://www.w3.org/2000/svg">
<path d="M61.15 76.0199L58.02 68.0499L55.49 64.8399C52.05 61.4799 45.64 54.2399 41.9 43.8699L39.45 33.9999C38.27 25.4399 39.49 16.6399 43.06 7.82993L44.58 4.38993C44.62 4.29993 44.66 4.20993 44.71 4.10993C44.74 4.04993 44.76 3.98993 44.79 3.92993C44.79 3.90993 44.8 3.89993 44.8 3.88993C44.81 3.83993 44.83 3.78993 44.84 3.73993C44.84 3.71993 44.85 3.69993 44.85 3.67993C44.86 3.62993 44.87 3.58993 44.87 3.53993C44.87 3.51993 44.88 3.49993 44.88 3.47993C44.89 3.42993 44.89 3.38993 44.89 3.33993C44.89 3.31993 44.89 3.29993 44.89 3.27993C44.89 3.22993 44.88 3.16993 44.88 3.11993C44.88 3.10993 44.88 3.08993 44.88 3.07993C44.88 3.07993 44.88 3.07993 44.88 3.06993C44.87 3.00993 44.86 2.93993 44.84 2.87993C44.84 2.86993 44.83 2.84993 44.83 2.82993C44.82 2.77993 44.8 2.72993 44.79 2.68993C44.78 2.66993 44.78 2.64993 44.77 2.62993C44.75 2.58993 44.73 2.53993 44.71 2.49993C44.7 2.48993 44.7 2.47993 44.7 2.46993C44.69 2.45993 44.69 2.44993 44.69 2.43993C44.67 2.39993 44.64 2.35993 44.62 2.30993C44.61 2.29993 44.6 2.27993 44.58 2.25993C44.55 2.20993 44.52 2.16993 44.48 2.11993C44.47 2.10993 44.46 2.09993 44.45 2.07993C44.41 2.03993 44.38 1.99993 44.34 1.96993C44.32 1.94993 44.3 1.92993 44.28 1.91993C44.25 1.88993 44.23 1.86993 44.19 1.84993C44.17 1.82993 44.14 1.80993 44.12 1.79993C44.09 1.76993 44.06 1.75993 44.02 1.73993C44 1.72993 43.98 1.70993 43.96 1.69993C43.92 1.67993 43.87 1.65993 43.83 1.63993C43.82 1.62993 43.8 1.62993 43.79 1.61993C43.73 1.58993 43.67 1.56993 43.6 1.54993C43.59 1.53993 43.57 1.53993 43.56 1.53993C43.51 1.51993 43.46 1.50993 43.41 1.49993C43.4 1.49993 43.39 1.49993 43.38 1.49993C41.26 1.11993 39.1 0.929932 36.94 0.929932C22.04 0.929932 8.74003 9.82993 3.05003 23.5899C3.05003 23.6099 3.04003 23.6199 3.03003 23.6399C2.30003 25.4099 1.71003 27.2499 1.27003 29.1099C1.24003 29.1799 1.21002 29.2499 1.18002 29.3199C1.11002 29.5199 1.08003 29.7299 1.09003 29.9299C0.560027 32.4399 0.280029 35.0099 0.280029 37.5899C0.280029 47.4599 4.11003 56.6399 11.08 63.5699L9.01003 75.7899C8.88002 76.5499 9.24003 77.3199 9.92003 77.6999C10.2 77.8599 16.88 81.6199 26.42 83.5699C30.08 84.3199 33.65 84.6899 37.11 84.6899C45.72 84.6899 53.63 82.3999 60.38 77.8899C60.98 77.4899 61.29 76.7499 61.15 76.0199ZM6.43002 25.0099C6.43002 24.9999 6.44003 24.9899 6.44003 24.9799C7.69003 21.9599 9.35003 19.2099 11.34 16.7699L16.78 20.1999C17.08 20.3899 17.42 20.4799 17.77 20.4799C18.04 20.4799 18.3 20.4299 18.55 20.3099C19.12 20.0399 19.51 19.4999 19.6 18.8799C19.61 18.7799 20.83 10.9499 32.91 7.06993L39.9 5.76993C36.1 14.8599 34.66 23.9599 35.59 32.8699C34.81 33.1899 33.83 33.6599 32.89 34.3199L27.45 29.5099L30.62 26.3299C30.78 26.1699 30.92 25.9699 31.01 25.7499C31.25 25.0799 31.04 24.3799 30.52 23.9699L29.6 23.2199C28.65 22.4499 27.42 22.0599 26.21 22.2199C24.48 22.4599 23.1 23.6799 22.62 25.3099L21.94 27.6499C21.77 28.2399 21.95 28.8799 22.41 29.2799L30.67 36.5799C29.59 38.2199 29.3 40.1399 29.84 42.2099C30.36 44.1999 31.45 45.6899 33.09 46.6199C34.54 47.4599 36.19 47.6999 37.6 47.6999C38.26 47.6999 38.86 47.6499 39.37 47.5799C41.38 52.4199 43.9 56.5399 46.33 59.8699C35.5 61.2999 27.16 59.4699 21.5 54.4199C12.63 46.4899 13.17 35.0799 13.28 32.8999C13.28 32.8599 13.28 32.8199 13.28 32.7899C13.28 31.9999 12.78 31.2999 12.03 31.0399L5.14003 28.7199C5.51003 27.4699 5.93002 26.2199 6.43002 25.0099ZM37.81 41.1999C37.81 42.4599 36.79 43.4799 35.53 43.4799C34.27 43.4799 33.25 42.4599 33.25 41.1999C33.25 39.9399 34.27 38.9199 35.53 38.9199C36.79 38.9199 37.81 39.9399 37.81 41.1999ZM17.13 76.8999C15.67 76.8999 14.49 75.7199 14.49 74.2599C14.49 72.7999 15.67 71.6199 17.13 71.6199C18.59 71.6199 19.77 72.7999 19.77 74.2599C19.77 75.7199 18.59 76.8999 17.13 76.8999ZM34.28 80.8499C32.82 80.8499 31.65 79.6699 31.65 78.2099C31.65 76.7499 32.83 75.5699 34.28 75.5699C35.74 75.5699 36.92 76.7499 36.92 78.2099C36.91 79.6699 35.74 80.8499 34.28 80.8499ZM40.94 67.5999L39.36 67.7799C37.03 68.0399 34.66 67.9999 32.34 67.6599L30.93 67.4599C27.35 66.9299 23.96 65.7199 20.86 63.8599C17.5 61.8499 14.66 59.1899 12.43 55.9699L12.03 55.3899C10.57 53.2899 9.42004 50.9899 8.60004 48.5699L6.21004 41.4699C7.24004 39.9799 8.54003 38.4299 9.75003 37.0999C10.25 42.2999 12.15 50.9899 19.03 57.1499C24.15 61.7399 31.03 64.0399 39.57 64.0399C42.51 64.0399 45.64 63.7599 48.96 63.2199C49.44 63.7899 49.92 64.3399 50.37 64.8399L48.54 65.6099C46.12 66.6399 43.56 67.3099 40.94 67.5999ZM51.68 78.2199C50.22 78.2199 49.04 77.0399 49.04 75.5799C49.04 74.1199 50.22 72.9399 51.68 72.9399C53.14 72.9399 54.32 74.1199 54.32 75.5799C54.32 77.0399 53.14 78.2199 51.68 78.2199Z" fill="url(#paint0_linear)"/>
<path d="M72.4801 40.0099C72.4801 50.3099 66.7601 60.7199 58.0201 68.0499L55.4901 64.8399C55.7201 64.6799 55.9501 64.5199 56.1701 64.3599C64.5401 57.6499 68.7901 49.4499 68.7901 40.0099C68.7901 24.4899 58.0601 11.1799 43.0601 7.8299L44.5701 4.38989C60.8801 8.36989 72.4801 22.9899 72.4801 40.0099Z" fill="url(#paint1_linear)"/>
<path d="M61.4201 47.62L57.1201 52.56C56.4001 53.38 55.1701 53.23 54.6201 52.24C52.0401 47.68 45.8101 35.09 43.6901 16.96C43.6901 16.96 40.9301 39.86 54.0201 57.46C55.0901 58.9 57.1101 58.76 58.0001 57.2C59.6801 54.22 61.8801 49.76 61.4201 47.62Z" fill="url(#paint2_linear)"/>
<defs>
<linearGradient id="paint0_linear" x1="0.253529" y1="42.8193" x2="61.1809" y2="42.8193" gradientUnits="userSpaceOnUse">
<stop stop-color="#FF0096"/>
<stop offset="1" stop-color="#00FFFF"/>
</linearGradient>
<linearGradient id="paint1_linear" x1="43.0556" y1="36.2216" x2="72.4817" y2="36.2216" gradientUnits="userSpaceOnUse">
<stop stop-color="#FF0096"/>
<stop offset="1" stop-color="#00FFFF"/>
</linearGradient>
<linearGradient id="paint2_linear" x1="43.4395" y1="37.7173" x2="61.483" y2="37.7173" gradientUnits="userSpaceOnUse">
<stop stop-color="#FF0096"/>
<stop offset="1" stop-color="#00FFFF"/>
</linearGradient>
</defs>
</svg>
