<svg id="Слой_1" data-name="Слой 1" xmlns="http://www.w3.org/2000/svg" viewBox="0 0 500 500"><defs><style>.cls-1{fill:#ee9106;}.cls-2{fill:#f5c207;}.cls-3{fill:#fddd0c;}.cls-4{fill:#ed8000;}.cls-5{fill:#f29e08;}.cls-6{fill:#e49b01;}</style></defs><title>uni coin</title><path class="cls-1" d="M372.6,257.5a116.95,116.95,0,1,1-72.88-108.38A117,117,0,0,1,372.6,257.5Z"/><path class="cls-2" d="M224.85,135.3,133.3,226.85A117.07,117.07,0,0,1,224.85,135.3Z"/><path class="cls-2" d="M364.07,264.78a116,116,0,0,1-13.81,42.1l-45.38,45.38a116,116,0,0,1-42.1,13.81Z"/><path class="cls-2" d="M156,250a91.17,91.17,0,0,0,1.68,17.53L137.3,287.9a115.69,115.69,0,0,1-6.21-33.39L159,226.59A91.71,91.71,0,0,0,156,250Z"/><path class="cls-3" d="M262.42,188.54,260,194l2.43-5.5Zm0,0L260,194l2.43-5.5Zm0,0L260,194l2.43-5.5Zm0,0L260,194l2.43-5.5Zm0,0L260,194l2.43-5.5Zm0,0L260,194l2.43-5.5Zm0,0L260,194l2.43-5.5Zm0,0L260,194l2.43-5.5Zm0,0L260,194l2.43-5.5Zm0,0L260,194l2.43-5.5Zm0,0L260,194l2.43-5.5Zm0,0L260,194l2.43-5.5Zm0,0L260,194l2.43-5.5Zm11.4,109.73A4.23,4.23,0,1,0,278,302.5,4.24,4.24,0,0,0,273.82,298.27Zm0,0A4.23,4.23,0,1,0,278,302.5,4.24,4.24,0,0,0,273.82,298.27Zm-11.4-109.73L260,194l2.43-5.5Zm102.36,54.32-26.92,26.92a92.52,92.52,0,0,0-.54-41.89L357.23,208a115.31,115.31,0,0,0-6.75-14.46l-18.61,18.61a91.47,91.47,0,0,0-8.77-15.27L341,179a117.14,117.14,0,0,0-9.88-11.34l-17.69,17.69a91.9,91.9,0,0,0-28.47-19.61l18.67-18.67a114.88,114.88,0,0,0-11.49-5.43c-2-.83-4.12-1.61-6.22-2.32l-20.37,20.38A92.44,92.44,0,0,0,224.59,161l27.92-27.92c-1.5-.06-3-.09-4.51-.09a116.89,116.89,0,0,0-23.15,2.3L133.3,226.85A116.89,116.89,0,0,0,131,250c0,1.51,0,3,.09,4.51L159,226.59a92.44,92.44,0,0,0-1.33,40.94L137.3,287.9c.71,2.1,1.49,4.18,2.32,6.22a114.88,114.88,0,0,0,5.43,11.49l18.67-18.67a91.9,91.9,0,0,0,19.61,28.47L165.64,333.1A117.14,117.14,0,0,0,177,343l17.88-17.88a91.47,91.47,0,0,0,15.27,8.77l-18.61,18.61A115.31,115.31,0,0,0,206,359.23l19.91-19.91a92.52,92.52,0,0,0,41.89.54l-26.92,26.92q3.54.23,7.14.22a116.25,116.25,0,0,0,14.78-.93L364.07,264.78A116.25,116.25,0,0,0,365,250Q365,246.4,364.78,242.86Zm-58.23-5.41-5.42,5.42a52.76,52.76,0,0,0-4.71-19.33l4.43-4.43A58.44,58.44,0,0,1,306.55,237.45Zm-46.36,46.36c-2,.15-3.9.22-5.77.22a60.09,60.09,0,0,1-16.39-2.1L243,277a67.2,67.2,0,0,0,22.32.35,97.1,97.1,0,0,1-8.6-14.07l4.43-4.43a90.75,90.75,0,0,0,9,15.07Zm-52.79,7.53,1.36-8a58,58,0,0,1-15.24-26.15l7.94-7.94,3.38,10a43.71,43.71,0,0,0,5.49,10.92l.64.93a42.94,42.94,0,0,0,8,8.71Zm-14.63-61.91a2.73,2.73,0,0,1,.15-1,3.45,3.45,0,0,1,.14-.34,58.07,58.07,0,0,1,2.82-8.76l0-.08a58.5,58.5,0,0,1,45.66-35.65l-27.66,27.66-4.67-2.95a52.69,52.69,0,0,0-7.85,13.16s0,0,0,.05c-.49,1.18-.93,2.39-1.33,3.61l-7.92,7.92C192.3,231.85,192.51,230.64,192.77,229.43Zm99.49-23-4.19,4.19A52.49,52.49,0,0,0,260,194c-5.71,14.11-7.66,28.2-5.77,41.9l1.7,6.87-4.35,4.35a3.64,3.64,0,1,0-3.92,3.92l-4.5,4.5a11.09,11.09,0,0,1-4.31-6.49,10.9,10.9,0,0,1,1.33-9L227,228.39a2.56,2.56,0,0,1-.76-2.61l.55-1.87,6.87-6.87a7.22,7.22,0,0,1,4.86,1.64l1.46,1.2a2.54,2.54,0,0,1,.78,2.86,2.68,2.68,0,0,1-.61.94L235,228.76l8.71,7.69a21.83,21.83,0,0,1,4.32-2.32,85.4,85.4,0,0,1,4-35.52L262.69,188l-.05.12h0c-.07.14-.14.29-.2.44A58.38,58.38,0,0,1,292.26,206.48Zm-30,30A105.12,105.12,0,0,1,261,208.66,168.21,168.21,0,0,0,265.7,233ZM221.53,273c-9.86-8.84-13.33-20.94-14.52-29.34l5.29-5.29c.21,7,2.11,20.34,13.21,30.27a29.69,29.69,0,0,0,2.55,2.05l-4.22,4.22C223.05,274.3,222.28,273.66,221.53,273Zm53.14-3.66a80.41,80.41,0,0,1-7.93-16.11L271,249a127,127,0,0,0,7.55,16.14,1.28,1.28,0,0,0,.14.21Zm-63,39,4.43-4.43A4.23,4.23,0,0,0,222,298l10.5-10.5a43.7,43.7,0,0,0,8.11,2l2.26.33A44.11,44.11,0,0,0,254,290l-24.44,24.44A103.72,103.72,0,0,1,211.67,308.29Zm38.77,8.82c-.76,0-1.53,0-2.3,0l31.76-31.76c.38-.25.74-.51,1.09-.77a60.33,60.33,0,0,0,11.17-11.49l12.52-12.52c-3.6,11.21-11,21.76-20.73,29.91l5,12.76a3,3,0,0,1-1.26,3A66.24,66.24,0,0,1,250.44,317.11Zm99.82-10.23-45.38,45.38A117.39,117.39,0,0,0,350.26,306.88Zm-76.44-8.61A4.23,4.23,0,1,0,278,302.5,4.24,4.24,0,0,0,273.82,298.27ZM260,194l2.43-5.5h0Zm13.82,104.23A4.23,4.23,0,1,0,278,302.5,4.24,4.24,0,0,0,273.82,298.27Zm-11.4-109.73L260,194l2.43-5.5Zm11.4,109.73A4.23,4.23,0,1,0,278,302.5,4.24,4.24,0,0,0,273.82,298.27Zm-11.4-109.73L260,194l2.43-5.5Zm0,0L260,194l2.43-5.5Zm0,0L260,194l2.43-5.5Zm0,0L260,194l2.43-5.5Zm0,0L260,194l2.43-5.5Zm0,0L260,194l2.43-5.5Zm0,0L260,194l2.43-5.5Zm0,0L260,194l2.43-5.5Zm0,0L260,194l2.43-5.5Zm0,0L260,194l2.43-5.5Zm0,0L260,194l2.43-5.5Zm0,0L260,194l2.43-5.5Zm0,0L260,194l2.43-5.5Z"/><path class="cls-2" d="M285.9,139.3l-20.37,20.38A92.44,92.44,0,0,0,224.59,161l27.92-27.92A115.69,115.69,0,0,1,285.9,139.3Z"/><path class="cls-2" d="M331.1,167.64l-17.69,17.69a91.9,91.9,0,0,0-28.47-19.61l18.67-18.67A117,117,0,0,1,331.1,167.64Z"/><path class="cls-4" d="M317.39,189.61l-1.4-1.2c-1-.86-2.08-1.7-3.14-2.52l-.47-.35c-1-.73-1.93-1.43-2.92-2.12-.55-.39-1.1-.77-1.66-1.13s-1.13-.75-1.7-1.1l-1.17-.73-.07,0c-.32-.2-.64-.4-1-.57l-1.39-.82-1.38-.77c-.46-.25-.91-.5-1.38-.74l-.87-.45-1.39-.7-.95-.46-1-.45-1.48-.67-1-.44q-.82-.36-1.65-.69l-1.71-.67-1.29-.48-1.61-.57q-.82-.28-1.65-.54l-.43-.14c-.45-.15-.91-.29-1.37-.42l-1-.29c-.58-.17-1.17-.33-1.76-.48h0l-1-.26c-.56-.15-1.12-.28-1.69-.41s-1.21-.28-1.82-.4c-1.22-.27-2.44-.5-3.68-.7-.36-.07-.73-.13-1.1-.18-.52-.09-1-.16-1.55-.23s-1-.14-1.55-.2l-1.41-.16c-.94-.1-1.88-.19-2.82-.26h0l-1.42-.09c-1-.06-1.92-.11-2.88-.13l-1.36,0H257a92,92,0,0,0-92,92c0,.4,0,.8,0,1.19v.09l0,1.36c0,1,.07,1.92.13,2.88,0,.47.06,1,.09,1.42v0c.07.94.16,1.88.26,2.82,0,.47.1.94.16,1.41s.12,1,.2,1.55.14,1,.23,1.55c0,.37.11.74.18,1.1.2,1.24.43,2.46.7,3.68.12.61.25,1.22.4,1.82s.26,1.13.41,1.69c.08.34.17.67.26,1h0v0c.15.59.31,1.18.48,1.76.09.33.19.66.29,1s.27.92.42,1.37c0,.15.09.29.14.43q.25.82.54,1.65l.57,1.61.48,1.29c.22.57.44,1.14.67,1.71s.45,1.1.69,1.65c.14.34.29.68.44,1,.22.5.44,1,.67,1.48l.45,1c.15.32.31.64.46.95.23.47.46.93.7,1.39.14.29.3.58.45.87.24.47.49.92.74,1.38s.51.93.77,1.38.54.93.82,1.39.37.64.57,1l0,.07c.24.4.48.78.73,1.17.35.57.72,1.14,1.1,1.7s.74,1.11,1.13,1.66c.69,1,1.39,2,2.12,2.92.12.16.24.31.35.47.82,1.06,1.66,2.11,2.52,3.14l1.2,1.4q-1.2-1-2.37-2.13c-.65-.61-1.29-1.22-1.91-1.85a91.9,91.9,0,0,1-19.61-28.47A92.19,92.19,0,0,1,156,250a92,92,0,0,1,109.53-90.32,90.45,90.45,0,0,1,19.41,6,91.9,91.9,0,0,1,28.47,19.61c.63.62,1.24,1.26,1.85,1.91S316.7,188.81,317.39,189.61Z"/><path class="cls-5" d="M262.42,188.54,260,194l2.43-5.5Zm0,0L260,194l2.43-5.5Zm0,0L260,194l2.43-5.5Zm0,0L260,194l2.43-5.5Zm0,0L260,194l2.43-5.5Zm0,0L260,194l2.43-5.5Zm0,0L260,194l2.43-5.5Zm0,0L260,194l2.43-5.5Zm0,0L260,194l2.43-5.5Zm0,0L260,194l2.43-5.5Zm0,0L260,194l2.43-5.5Zm11.4,109.73A4.23,4.23,0,1,0,278,302.5,4.24,4.24,0,0,0,273.82,298.27Zm0,0A4.23,4.23,0,1,0,278,302.5,4.24,4.24,0,0,0,273.82,298.27Zm-11.4-109.73L260,194l2.43-5.5Zm74.9,39.35a91.13,91.13,0,0,0-14.22-31q-2.67-3.77-5.71-7.25l-1.4-1.2c-1-.86-2.08-1.7-3.14-2.52l-.47-.35c-1-.73-1.93-1.43-2.92-2.12-.55-.38-1.1-.76-1.66-1.13l-1.7-1.1-1.17-.73-.07,0c-.32-.2-.64-.4-1-.57l-1.39-.82-1.38-.77-1.38-.74-.87-.45-1.39-.7-.95-.46-1-.45-1.48-.67-1-.44q-.82-.36-1.65-.69l-1.71-.67-1.29-.48-1.61-.57q-.82-.28-1.65-.54l-.43-.14c-.45-.15-.91-.29-1.37-.42l-1-.29c-.58-.17-1.17-.33-1.76-.48h0l-1-.26c-.56-.15-1.12-.28-1.69-.41s-1.21-.28-1.82-.4c-1.22-.27-2.44-.5-3.68-.7-.36-.07-.73-.13-1.1-.18-.52-.09-1-.16-1.55-.23s-1-.14-1.55-.2l-1.41-.16c-.94-.1-1.88-.19-2.82-.26h0l-1.42-.09c-1-.06-1.92-.11-2.88-.13l-1.36,0H257a92,92,0,0,0-92,92c0,.4,0,.8,0,1.19v.09l0,1.36c0,1,.07,1.92.13,2.88,0,.47.06,1,.09,1.42v0c.07.94.16,1.88.26,2.82,0,.47.1.94.16,1.41s.12,1,.2,1.55.14,1,.23,1.55c0,.37.11.74.18,1.1.2,1.24.43,2.46.7,3.68.12.61.25,1.22.4,1.82s.26,1.13.41,1.69c.08.34.17.67.26,1h0v0c.15.59.31,1.18.48,1.76.09.33.19.66.29,1s.27.92.42,1.37c0,.15.09.29.14.43q.25.82.54,1.65l.57,1.61.48,1.29c.22.57.44,1.14.67,1.71s.45,1.1.69,1.65c.14.34.29.68.44,1,.22.5.44,1,.67,1.48l.45,1c.15.32.31.64.46.95.23.47.46.93.7,1.39.14.29.3.58.45.87.24.46.49.92.74,1.38s.51.93.77,1.38.54.93.82,1.39.37.64.57,1l0,.07c.24.4.48.78.73,1.17.36.57.73,1.14,1.1,1.7s.75,1.11,1.13,1.66c.69,1,1.39,2,2.12,2.92.12.16.24.31.35.47.82,1.06,1.66,2.11,2.52,3.14l1.2,1.4q3.48,3,7.25,5.71a92,92,0,0,0,142.46-97.21Zm-30.77,9.56-5.42,5.42a52.76,52.76,0,0,0-4.71-19.33l4.43-4.43A58.44,58.44,0,0,1,306.55,237.45Zm-46.36,46.36c-2,.15-3.9.22-5.77.22a60.09,60.09,0,0,1-16.39-2.1L243,277a67.2,67.2,0,0,0,22.32.35,97.1,97.1,0,0,1-8.6-14.07l4.43-4.43a90.75,90.75,0,0,0,9,15.07ZM221.53,273c-9.86-8.84-13.33-20.94-14.52-29.34l5.29-5.29c.21,7,2.11,20.34,13.21,30.27a29.69,29.69,0,0,0,2.55,2.05l-4.22,4.22C223.05,274.3,222.28,273.66,221.53,273ZM261,208.66A168.21,168.21,0,0,0,265.7,233l-3.41,3.41A105.12,105.12,0,0,1,261,208.66Zm13.67,60.67a80.41,80.41,0,0,1-7.93-16.11L271,249a127,127,0,0,0,7.55,16.14,1.28,1.28,0,0,0,.14.21Zm17.59-62.85-4.19,4.19A52.49,52.49,0,0,0,260,194c-5.71,14.11-7.66,28.2-5.77,41.9l1.7,6.87-4.35,4.35a3.64,3.64,0,1,0-3.92,3.92l-4.5,4.5a11.09,11.09,0,0,1-4.31-6.49,10.9,10.9,0,0,1,1.33-9L227,228.39a2.56,2.56,0,0,1-.76-2.61l.55-1.87,6.87-6.87a7.22,7.22,0,0,1,4.86,1.64l1.46,1.2a2.54,2.54,0,0,1,.78,2.86,2.68,2.68,0,0,1-.61.94L235,228.76l8.71,7.69a21.83,21.83,0,0,1,4.32-2.32,85.4,85.4,0,0,1,4-35.52L262.69,188l-.05.12h0c-.07.14-.14.29-.2.44A58.38,58.38,0,0,1,292.26,206.48Zm-99.49,23a2.73,2.73,0,0,1,.15-1,3.45,3.45,0,0,1,.14-.34,58.07,58.07,0,0,1,2.82-8.76l0-.08a58.5,58.5,0,0,1,45.66-35.65l-27.66,27.66-4.67-2.95a52.69,52.69,0,0,0-7.85,13.16s0,0,0,.05c-.49,1.18-.93,2.39-1.33,3.61l-7.92,7.92C192.3,231.85,192.51,230.64,192.77,229.43Zm.75,27.71,7.94-7.94,3.38,10a43.71,43.71,0,0,0,5.49,10.92l.64.93a42.94,42.94,0,0,0,8,8.71L207.4,291.34l1.36-8A58,58,0,0,1,193.52,257.14Zm18.15,51.15,4.43-4.43A4.23,4.23,0,0,0,222,298l10.5-10.5a43.7,43.7,0,0,0,8.11,2l2.26.33A44.11,44.11,0,0,0,254,290l-24.44,24.44A103.72,103.72,0,0,1,211.67,308.29Zm38.77,8.82c-.76,0-1.53,0-2.3,0l31.76-31.76c.38-.25.74-.51,1.09-.77a60.33,60.33,0,0,0,11.17-11.49l12.52-12.52c-3.6,11.21-11,21.76-20.73,29.91l5,12.76a3,3,0,0,1-1.26,3A66.24,66.24,0,0,1,250.44,317.11Zm23.38-18.84A4.23,4.23,0,1,0,278,302.5,4.24,4.24,0,0,0,273.82,298.27ZM260,194l2.43-5.5h0Zm2.42-5.5L260,194l2.43-5.5Zm0,0L260,194l2.43-5.5Zm0,0L260,194l2.43-5.5Zm0,0L260,194l2.43-5.5Zm0,0L260,194l2.43-5.5Zm0,0L260,194l2.43-5.5Zm0,0L260,194l2.43-5.5Zm0,0L260,194l2.43-5.5Zm0,0L260,194l2.43-5.5Zm0,0L260,194l2.43-5.5Zm0,0L260,194l2.43-5.5Zm0,0L260,194l2.43-5.5Z"/><path class="cls-4" d="M297.57,311.7l-5-12.76-4.05-5.13a91.87,91.87,0,0,1-21.77-33.58l-3.91-15.79c-1.88-13.7.06-27.79,5.77-41.9L271,197c.07-.15.13-.3.21-.44h0c.05-.1.08-.2.12-.29a.64.64,0,0,1,0-.07c0-.08.05-.16.07-.24a.29.29,0,0,1,0-.09l0-.23a.31.31,0,0,0,0-.1,1.62,1.62,0,0,0,0-.22s0-.06,0-.1,0-.17,0-.26a.07.07,0,0,0,0-.05h0a1.7,1.7,0,0,0-.06-.31.19.19,0,0,0,0-.07,1.55,1.55,0,0,0-.07-.23l0-.1-.1-.21s0,0,0,0l0,0-.12-.2a.22.22,0,0,0-.05-.08l-.17-.23s0,0,0-.06l-.18-.18a.39.39,0,0,0-.1-.08l-.13-.12-.11-.08-.16-.1-.1-.07-.21-.1-.07,0a2.09,2.09,0,0,0-.3-.11h-.06l-.25-.07h0a58.73,58.73,0,0,0-64.57,35.37l0,.08a59.22,59.22,0,0,0-2.82,8.76c0,.11-.09.22-.14.34a3,3,0,0,0-.15,1,59.28,59.28,0,0,0-1.29,12.26,58.12,58.12,0,0,0,17.29,41.6l-3.31,19.56a3,3,0,0,0,1.45,3.06,97.58,97.58,0,0,0,26.42,9.41A85.87,85.87,0,0,0,259,325.61a66.24,66.24,0,0,0,37.26-10.88A3,3,0,0,0,297.57,311.7ZM210,230.05l0-.05a53.3,53.3,0,0,1,7.85-13.16l8.71,5.5a3,3,0,0,0,1.58.45,3.06,3.06,0,0,0,1.25-.27,3,3,0,0,0,1.68-2.29c0-.16,2-12.69,21.32-18.9l11.18-2.08c-6.07,14.55-8.39,29.12-6.9,43.38a21.83,21.83,0,0,0-4.32,2.32l-8.71-7.69,5.08-5.08a2.7,2.7,0,0,0,.62-.94,2.56,2.56,0,0,0-.78-2.86l-1.47-1.2a7.15,7.15,0,0,0-5.43-1.59,6.94,6.94,0,0,0-5.75,4.94l-1.09,3.75a2.53,2.53,0,0,0,.75,2.61l13.22,11.68a11.77,11.77,0,0,0,3.88,16.09,14.52,14.52,0,0,0,7.23,1.72,21.13,21.13,0,0,0,2.83-.2,96,96,0,0,0,11.15,19.68c-17.33,2.29-30.7-.64-39.75-8.73-14.21-12.7-13.34-31-13.16-34.45a1.15,1.15,0,0,0,0-.18,3,3,0,0,0-2-2.8l-11-3.71A54,54,0,0,1,210,230.05ZM260.21,256a3.65,3.65,0,1,1-3.65-3.65A3.65,3.65,0,0,1,260.21,256Zm-33.1,57.16a4.23,4.23,0,1,1,4.22-4.22A4.23,4.23,0,0,1,227.11,313.11Zm27.44,6.33a4.22,4.22,0,1,1,4.22-4.22A4.21,4.21,0,0,1,254.55,319.44Zm10.67-21.22-2.53.29a44.07,44.07,0,0,1-11.24-.2l-2.26-.33a43.78,43.78,0,0,1-29.62-18.39l-.64-.93a44,44,0,0,1-5.49-10.92l-3.83-11.36a68.22,68.22,0,0,1,5.68-7c.79,8.32,3.84,22.24,14.85,32.1,8.19,7.35,19.21,11,32.89,11a93.44,93.44,0,0,0,15-1.32c.78.92,1.54,1.79,2.26,2.6l-2.93,1.24A44.13,44.13,0,0,1,265.22,298.22Zm17.2,17a4.23,4.23,0,1,1,4.22-4.22A4.22,4.22,0,0,1,282.42,315.22Z"/><path class="cls-4" d="M315.71,254.06c0,16.49-9.16,33.16-23.15,44.88l-4.05-5.13c.37-.25.73-.51,1.09-.77,13.4-10.74,20.2-23.86,20.2-39a52.69,52.69,0,0,0-41.2-51.52L271,197A58.59,58.59,0,0,1,315.71,254.06Z"/><path class="cls-4" d="M298,266.25l-6.89,7.9a2.42,2.42,0,0,1-4-.51c-4.12-7.3-14.11-27.46-17.5-56.48,0,0-4.42,36.66,16.54,64.84a3.72,3.72,0,0,0,6.37-.41C295.21,276.8,298.75,269.67,298,266.25Z"/><path class="cls-2" d="M183.33,315.41,165.64,333.1a117,117,0,0,1-20.59-27.49l18.67-18.67A91.9,91.9,0,0,0,183.33,315.41Z"/><path class="cls-6" d="M293.57,307.2l-5-12.76-4.05-5.13a91.87,91.87,0,0,1-21.77-33.58l-3.91-15.79c-1.88-13.7.06-27.79,5.77-41.9l2.43-5.5c.07-.15.13-.3.21-.44h0c.05-.1.08-.2.12-.29a.64.64,0,0,1,0-.07c0-.08.05-.16.07-.24a.29.29,0,0,1,0-.09l0-.23a.31.31,0,0,0,0-.1,1.62,1.62,0,0,0,0-.22s0-.06,0-.1,0-.17,0-.26a.07.07,0,0,0,0-.05h0a1.7,1.7,0,0,0-.06-.31.19.19,0,0,0,0-.07,1.55,1.55,0,0,0-.07-.23l0-.1-.1-.21s0,0,0,0l0,0-.12-.2a.22.22,0,0,0-.05-.08l-.17-.23s0,0,0-.06l-.18-.18a.39.39,0,0,0-.1-.08l-.13-.12-.11-.08-.16-.1-.1-.07-.21-.1-.07,0a2.09,2.09,0,0,0-.3-.11h-.06l-.25-.07h0a58.73,58.73,0,0,0-64.57,35.37l0,.08a59.22,59.22,0,0,0-2.82,8.76c0,.11-.09.22-.14.34a3,3,0,0,0-.15,1,59.28,59.28,0,0,0-1.29,12.26,58.12,58.12,0,0,0,17.29,41.6l-3.31,19.56a3,3,0,0,0,1.45,3.06,97.58,97.58,0,0,0,26.42,9.41A85.87,85.87,0,0,0,255,321.11a66.24,66.24,0,0,0,37.26-10.88A3,3,0,0,0,293.57,307.2ZM206,225.55l0-.05a53.3,53.3,0,0,1,7.85-13.16l8.71,5.5a3,3,0,0,0,1.58.45,3.06,3.06,0,0,0,1.25-.27,3,3,0,0,0,1.68-2.29c0-.16,2-12.69,21.32-18.9l11.18-2.08c-6.07,14.55-8.39,29.12-6.9,43.38a21.83,21.83,0,0,0-4.32,2.32l-8.71-7.69,5.08-5.08a2.7,2.7,0,0,0,.62-.94,2.56,2.56,0,0,0-.78-2.86l-1.47-1.2a7.15,7.15,0,0,0-5.43-1.59A6.94,6.94,0,0,0,231.9,226l-1.09,3.75a2.53,2.53,0,0,0,.75,2.61l13.22,11.68a11.77,11.77,0,0,0,3.88,16.09,14.52,14.52,0,0,0,7.23,1.72,21.13,21.13,0,0,0,2.83-.2,96,96,0,0,0,11.15,19.68c-17.33,2.29-30.7-.64-39.75-8.73-14.21-12.7-13.34-31-13.16-34.45a1.15,1.15,0,0,0,0-.18,3,3,0,0,0-2-2.8l-11-3.71A54,54,0,0,1,206,225.55Zm50.24,25.9a3.65,3.65,0,1,1-3.65-3.65A3.65,3.65,0,0,1,256.21,251.45Zm-33.1,57.16a4.23,4.23,0,1,1,4.22-4.22A4.23,4.23,0,0,1,223.11,308.61Zm27.44,6.33a4.22,4.22,0,1,1,4.22-4.22A4.21,4.21,0,0,1,250.55,314.94Zm10.67-21.22-2.53.29a44.07,44.07,0,0,1-11.24-.2l-2.26-.33a43.78,43.78,0,0,1-29.62-18.39l-.64-.93a44,44,0,0,1-5.49-10.92l-3.83-11.36a68.22,68.22,0,0,1,5.68-7c.79,8.32,3.84,22.24,14.85,32.1,8.19,7.35,19.21,11,32.89,11a93.44,93.44,0,0,0,15-1.32c.78.92,1.54,1.79,2.26,2.6l-2.93,1.24A44.13,44.13,0,0,1,261.22,293.72Zm17.2,17a4.23,4.23,0,1,1,4.22-4.22A4.22,4.22,0,0,1,278.42,310.72Z"/><path class="cls-6" d="M311.71,249.56c0,16.49-9.16,33.16-23.15,44.88l-4.05-5.13c.37-.25.73-.51,1.09-.77,13.4-10.74,20.2-23.86,20.2-39A52.69,52.69,0,0,0,264.6,198l2.43-5.5A58.59,58.59,0,0,1,311.71,249.56Z"/><path class="cls-6" d="M294,261.75l-6.89,7.9a2.42,2.42,0,0,1-4-.51c-4.12-7.3-14.11-27.46-17.5-56.48,0,0-4.42,36.66,16.54,64.84a3.72,3.72,0,0,0,6.37-.41C291.21,272.3,294.75,265.17,294,261.75Z"/><path class="cls-3" d="M228.06,270.68l-4.22,4.22a42,42,0,0,0,14.19,7L243,277A37.44,37.44,0,0,1,228.06,270.68Zm0,0-4.22,4.22a42,42,0,0,0,14.19,7L243,277A37.44,37.44,0,0,1,228.06,270.68Zm0,0-4.22,4.22a42,42,0,0,0,14.19,7L243,277A37.44,37.44,0,0,1,228.06,270.68Zm0,0-4.22,4.22a42,42,0,0,0,14.19,7L243,277A37.44,37.44,0,0,1,228.06,270.68Zm-9.12,9.12L207.4,291.34l-2,11.51a3,3,0,0,0,1.46,3.06c.17.1,1.87,1.06,4.76,2.38l4.43-4.43A4.23,4.23,0,1,1,222,298l10.5-10.5a43.69,43.69,0,0,1-13.54-7.68Zm9.12-9.12-4.22,4.22a42,42,0,0,0,14.19,7L243,277A37.44,37.44,0,0,1,228.06,270.68Zm42,3.25-9.88,9.88q4.47-.31,9.27-1.1c.77.92,1.53,1.79,2.25,2.6l-2.92,1.24a44.22,44.22,0,0,1-12.17,3.17l-2.53.29H254l-24.44,24.44c1.22.31,2.48.6,3.78.86a86.77,86.77,0,0,0,14.82,1.75l31.76-31.76A90.63,90.63,0,0,1,270.07,273.93Zm-24.12,37a4.22,4.22,0,1,1,4.22-4.22A4.21,4.21,0,0,1,246,310.94Zm12.19-59.21-2.21-8.92-4.35,4.35a1.37,1.37,0,0,1,0,.29A3.64,3.64,0,0,1,248,251.1a1.37,1.37,0,0,1-.29,0l-4.5,4.5a10.61,10.61,0,0,0,.9.58,14.49,14.49,0,0,0,7.22,1.72,21.29,21.29,0,0,0,2.84-.2q1.22,2.91,2.55,5.61l4.43-4.43Q259.49,255.47,258.14,251.73Zm-30.08,19-4.22,4.22a42,42,0,0,0,14.19,7L243,277A37.44,37.44,0,0,1,228.06,270.68ZM212.36,234a3,3,0,0,0-2-2.8l-11-3.71c.22-.78.45-1.56.71-2.33l-7.92,7.92a59.06,59.06,0,0,0,1.4,24.06l7.94-7.94-.45-1.32a68.13,68.13,0,0,1,5.67-7c.08.86.19,1.79.33,2.76l5.29-5.29c-.05-2,0-3.42.06-4.18Zm15.7,36.68-4.22,4.22a42,42,0,0,0,14.19,7L243,277A37.44,37.44,0,0,1,228.06,270.68Zm5-53.59A6.93,6.93,0,0,0,227.3,222l-.55,1.88,6.87-6.87A5.67,5.67,0,0,0,233,217.09Zm0,0A6.93,6.93,0,0,0,227.3,222l-.55,1.88,6.87-6.87A5.67,5.67,0,0,0,233,217.09Zm0,0A6.93,6.93,0,0,0,227.3,222l-.55,1.88,6.87-6.87A5.67,5.67,0,0,0,233,217.09Zm29.86-30.6v-.05h0l-.06-.31s0-.05,0-.07a1.55,1.55,0,0,0-.07-.23,1,1,0,0,0,0-.1l-.09-.21,0,0,0,0c0-.07-.08-.13-.11-.2a.24.24,0,0,0-.06-.08l-.16-.23-.06-.06-.17-.18-.1-.08-.14-.12-.11-.08-.15-.1-.11-.07-.21-.1-.06,0-.3-.11h-.06l-.25-.07h0a58.93,58.93,0,0,0-18.91-.28l-27.66,27.66,4,2.55a3,3,0,0,0,1.57.45,2.95,2.95,0,0,0,2.94-2.56c0-.16,2-12.69,21.31-18.9L255,190.75q-1.65,3.93-2.91,7.86L262.69,188c0-.06.05-.12.07-.17a.14.14,0,0,1,0-.07,2.1,2.1,0,0,0,.06-.24.29.29,0,0,0,0-.09c0-.08,0-.15,0-.23s0-.06,0-.1a1.62,1.62,0,0,0,0-.22v-.1A2.46,2.46,0,0,0,262.9,186.49ZM227.3,222l-.55,1.88,6.87-6.87a5.67,5.67,0,0,0-.58.05A6.93,6.93,0,0,0,227.3,222Zm5.74-4.94A6.93,6.93,0,0,0,227.3,222l-.55,1.88,6.87-6.87A5.67,5.67,0,0,0,233,217.09Zm0,0A6.93,6.93,0,0,0,227.3,222l-.55,1.88,6.87-6.87A5.67,5.67,0,0,0,233,217.09Zm29.38-28.55L260,194l2.43-5.5ZM233,217.09A6.93,6.93,0,0,0,227.3,222l-.55,1.88,6.87-6.87A5.67,5.67,0,0,0,233,217.09Zm-5,53.59-4.22,4.22a42,42,0,0,0,14.19,7L243,277A37.44,37.44,0,0,1,228.06,270.68Z"/><polygon class="cls-3" points="262.43 188.54 260 194.04 262.42 188.54 262.43 188.54"/><path class="cls-3" d="M296.42,223.54a52.77,52.77,0,0,0-8.35-12.87l4.19-4.19a58.89,58.89,0,0,1,8.59,12.63Z"/><path class="cls-3" d="M307.11,245.56a48.9,48.9,0,0,1-2.43,15l-12.52,12.52a45.45,45.45,0,0,0,9-27.49c0-.9,0-1.8-.07-2.69l5.42-5.42A58.65,58.65,0,0,1,307.11,245.56Z"/><path class="cls-3" d="M265.7,233A160,160,0,0,0,271,249l-4.22,4.22a96.88,96.88,0,0,1-4.45-16.77Z"/><path class="cls-3" d="M283.91,273.09a3.71,3.71,0,0,1-6.36.41q-1.53-2.06-2.88-4.17l4-4a2.39,2.39,0,0,0,3.87.3l6.88-7.9C290.14,261.17,286.61,268.3,283.91,273.09Z"/><path class="cls-2" d="M210.13,333.87l-18.61,18.61A114.92,114.92,0,0,1,177,343l17.88-17.88A91.47,91.47,0,0,0,210.13,333.87Z"/><path class="cls-2" d="M350.48,193.52l-18.61,18.61a91.47,91.47,0,0,0-8.77-15.27L341,179A114.92,114.92,0,0,1,350.48,193.52Z"/><path class="cls-2" d="M337.86,269.78a92.52,92.52,0,0,0-.54-41.89L357.23,208a116.16,116.16,0,0,1,7.55,34.88Z"/><path class="cls-2" d="M267.78,339.86l-26.92,26.92A116.16,116.16,0,0,1,206,359.23l19.91-19.91a92.52,92.52,0,0,0,41.89.54Z"/><path class="cls-2" d="M241.57,183.63l-27.66,27.66-4.67-2.95a52.69,52.69,0,0,0-7.85,13.16s0,0,0,.05c-.49,1.18-.93,2.39-1.33,3.61l-7.92,7.92c.18-1.23.39-2.44.65-3.65a2.73,2.73,0,0,1,.15-1,3.45,3.45,0,0,1,.14-.34,58.07,58.07,0,0,1,2.82-8.76l0-.08A58.5,58.5,0,0,1,241.57,183.63Z"/><path class="cls-2" d="M292.26,206.48l-4.19,4.19A52.49,52.49,0,0,0,260,194l2.43-5.5A58.38,58.38,0,0,1,292.26,206.48Z"/><path class="cls-2" d="M265.7,233l-3.41,3.41A105.12,105.12,0,0,1,261,208.66,168.21,168.21,0,0,0,265.7,233Z"/><path class="cls-2" d="M262.69,188l-.05.12h0c-.07.14-.14.29-.2.44h0L260,194c-5.71,14.11-7.66,28.2-5.77,41.9l1.7,6.87-4.35,4.35a3.64,3.64,0,1,0-3.92,3.92l-4.5,4.5a11.09,11.09,0,0,1-4.31-6.49,10.9,10.9,0,0,1,1.33-9L227,228.39a2.56,2.56,0,0,1-.76-2.61l.55-1.87,6.87-6.87a7.22,7.22,0,0,1,4.86,1.64l1.46,1.2a2.54,2.54,0,0,1,.78,2.86,2.68,2.68,0,0,1-.61.94L235,228.76l8.71,7.69a21.83,21.83,0,0,1,4.32-2.32,85.4,85.4,0,0,1,4-35.52Z"/><path class="cls-2" d="M228.06,270.68l-4.22,4.22c-.79-.6-1.56-1.24-2.31-1.91-9.86-8.84-13.33-20.94-14.52-29.34l5.29-5.29c.21,7,2.11,20.34,13.21,30.27A29.69,29.69,0,0,0,228.06,270.68Z"/><path class="cls-2" d="M207.4,291.34l1.36-8a58,58,0,0,1-15.24-26.15l7.94-7.94,3.38,10a43.71,43.71,0,0,0,5.49,10.92l.64.93a42.94,42.94,0,0,0,8,8.71Z"/><polygon class="cls-2" points="262.42 188.54 262.43 188.54 260 194.04 262.42 188.54"/><path class="cls-2" d="M254,290l-24.44,24.44a103.72,103.72,0,0,1-17.87-6.17l4.43-4.43A4.23,4.23,0,0,0,222,298l10.5-10.5a43.7,43.7,0,0,0,8.11,2l2.26.33A44.11,44.11,0,0,0,254,290Z"/><path class="cls-2" d="M270.07,273.93l-9.88,9.88c-2,.15-3.9.22-5.77.22a60.09,60.09,0,0,1-16.39-2.1L243,277a67.2,67.2,0,0,0,22.32.35,97.1,97.1,0,0,1-8.6-14.07l4.43-4.43A90.75,90.75,0,0,0,270.07,273.93Z"/><path class="cls-2" d="M254.42,284c1.87,0,3.8-.07,5.77-.22L254,290a44.11,44.11,0,0,1-11.13-.21l-2.26-.33a43.7,43.7,0,0,1-8.11-2l5.55-5.55A60.09,60.09,0,0,0,254.42,284Z"/><path class="cls-2" d="M278.65,265.35l-4,4a80.41,80.41,0,0,1-7.93-16.11L271,249a127,127,0,0,0,7.55,16.14A1.28,1.28,0,0,0,278.65,265.35Z"/><path class="cls-2" d="M306.55,237.45l-5.42,5.42a52.76,52.76,0,0,0-4.71-19.33l4.43-4.43A58.44,58.44,0,0,1,306.55,237.45Z"/><path class="cls-2" d="M304.68,260.53c-3.6,11.21-11,21.76-20.73,29.91l-4.05-5.13c.38-.25.74-.51,1.09-.77a60.33,60.33,0,0,0,11.17-11.49Z"/><path class="cls-2" d="M281,284.54c-.35.26-.71.52-1.09.77l12.26-12.26A60.33,60.33,0,0,1,281,284.54Z"/><path class="cls-2" d="M289,303.2l-5-12.76-4.05-5.13-31.76,31.76c.77,0,1.54,0,2.3,0a66.24,66.24,0,0,0,37.26-10.88A3,3,0,0,0,289,303.2Zm-15.14,3.52A4.23,4.23,0,1,1,278,302.5,4.23,4.23,0,0,1,273.82,306.72Z"/></svg>